HIERARCHY
ROOT m_avg_root
{
	OFFSET 0.000000 0.000000 0.000000
	CHANNELS 6 Xposition Yposition Zposition Xrotation Yrotation Zrotation
	JOINT m_avg_Pelvis
	{
		OFFSET -0.002174 0.972724 0.028584
		CHANNELS 6 Xposition Yposition Zposition Xrotation Yrotation Zrotation
		JOINT m_avg_L_Hip
		{
			OFFSET 0.058581 -0.082280 -0.017664
			CHANNELS 6 Xposition Yposition Zposition Xrotation Yrotation Zrotation
			JOINT m_avg_L_Knee
			{
				OFFSET 0.043451 -0.386469 0.008037
				CHANNELS 6 Xposition Yposition Zposition Xrotation Yrotation Zrotation
				JOINT m_avg_L_Ankle
				{
					OFFSET -0.014790 -0.426874 -0.037428
					CHANNELS 6 Xposition Yposition Zposition Xrotation Yrotation Zrotation
					JOINT m_avg_L_Foot
					{
						OFFSET 0.041054 -0.060286 0.122042
						CHANNELS 6 Xposition Yposition Zposition Xrotation Yrotation Zrotation
						End Site
						{
							OFFSET 0.000000 0.142177 0.000000
						}
					}
				}
			}
		}
		JOINT m_avg_R_Hip
		{
			OFFSET -0.060310 -0.090513 -0.013543
			CHANNELS 6 Xposition Yposition Zposition Xrotation Yrotation Zrotation
			JOINT m_avg_R_Knee
			{
				OFFSET -0.043257 -0.383688 -0.004843
				CHANNELS 6 Xposition Yposition Zposition Xrotation Yrotation Zrotation
				JOINT m_avg_R_Ankle
				{
					OFFSET 0.019056 -0.420046 -0.034562
					CHANNELS 6 Xposition Yposition Zposition Xrotation Yrotation Zrotation
					JOINT m_avg_R_Foot
					{
						OFFSET -0.034840 -0.062106 0.130323
						CHANNELS 6 Xposition Yposition Zposition Xrotation Yrotation Zrotation
						End Site
						{
							OFFSET 0.000000 0.148510 0.000000
						}
					}
				}
			}
		}
		JOINT m_avg_Spine1
		{
			OFFSET 0.004439 0.124404 -0.038385
			CHANNELS 6 Xposition Yposition Zposition Xrotation Yrotation Zrotation
			JOINT m_avg_Spine2
			{
				OFFSET 0.004488 0.137956 0.026820
				CHANNELS 6 Xposition Yposition Zposition Xrotation Yrotation Zrotation
				JOINT m_avg_Spine3
				{
					OFFSET -0.002265 0.056032 0.002855
					CHANNELS 6 Xposition Yposition Zposition Xrotation Yrotation Zrotation
					JOINT m_avg_Neck
					{
						OFFSET -0.013390 0.211635 -0.033468
						CHANNELS 6 Xposition Yposition Zposition Xrotation Yrotation Zrotation
						JOINT m_avg_Head
						{
							OFFSET 0.010113 0.088937 0.050410
							CHANNELS 6 Xposition Yposition Zposition Xrotation Yrotation Zrotation
							End Site
							{
								OFFSET 0.000000 0.102729 0.000000
							}
						}
					}
					JOINT m_avg_L_Collar
					{
						OFFSET 0.071702 0.114000 -0.018898
						CHANNELS 6 Xposition Yposition Zposition Xrotation Yrotation Zrotation
						JOINT m_avg_L_Shoulder
						{
							OFFSET 0.122921 0.045205 -0.019046
							CHANNELS 6 Xposition Yposition Zposition Xrotation Yrotation Zrotation
							JOINT m_avg_L_Elbow
							{
								OFFSET 0.255332 -0.015649 -0.022946
								CHANNELS 6 Xposition Yposition Zposition Xrotation Yrotation Zrotation
								JOINT m_avg_L_Wrist
								{
									OFFSET 0.265709 0.012698 -0.007375
									CHANNELS 6 Xposition Yposition Zposition Xrotation Yrotation Zrotation
									JOINT m_avg_L_Hand
									{
										OFFSET 0.086691 -0.010636 -0.015594
										CHANNELS 6 Xposition Yposition Zposition Xrotation Yrotation Zrotation
										End Site
										{
											OFFSET 0.000000 0.088722 0.000000
										}
									}
								}
							}
						}
					}
					JOINT m_avg_R_Collar
					{
						OFFSET -0.082954 0.112472 -0.023707
						CHANNELS 6 Xposition Yposition Zposition Xrotation Yrotation Zrotation
						JOINT m_avg_R_Shoulder
						{
							OFFSET -0.113228 0.046853 -0.008472
							CHANNELS 6 Xposition Yposition Zposition Xrotation Yrotation Zrotation
							JOINT m_avg_R_Elbow
							{
								OFFSET -0.260127 -0.014369 -0.031269
								CHANNELS 6 Xposition Yposition Zposition Xrotation Yrotation Zrotation
								JOINT m_avg_R_Wrist
								{
									OFFSET -0.269108 0.006794 -0.006027
									CHANNELS 6 Xposition Yposition Zposition Xrotation Yrotation Zrotation
									JOINT m_avg_R_Hand
									{
										OFFSET -0.088754 -0.008652 -0.010107
										CHANNELS 6 Xposition Yposition Zposition Xrotation Yrotation Zrotation
										End Site
										{
											OFFSET 0.000000 0.089745 0.000000
										}
									}
								}
							}
						}
					}
				}
			}
		}
	}
}
MOTION
Frames: 8
Frame Time: 0.041667
0.000000 0.000000 0.000000 -0.000000 0.000000 -0.000000 -0.002174 0.972724 0.028584 -0.000000 0.000000 -0.000000 0.058581 -0.082280 -0.017664 16.317844 33.712229 21.681018 0.043451 -0.386469 0.008037 17.810596 25.705733 24.470469 -0.014790 -0.426874 -0.037428 22.887236 37.742792 22.186264 0.041054 -0.060286 0.122042 30.265712 33.554404 17.529431 -0.060310 -0.090513 -0.013543 28.221792 38.069948 21.688613 -0.043257 -0.383688 -0.004843 21.879685 31.029300 18.277262 0.019056 -0.420046 -0.034562 20.442713 29.141870 20.982198 -0.034840 -0.062105 0.130323 24.634979 31.670604 22.487109 0.004439 0.124404 -0.038385 20.911533 33.167778 21.239971 0.004489 0.137957 0.026820 27.506179 32.599243 23.197441 -0.002265 0.056032 0.002855 21.250805 31.157257 18.111560 -0.013390 0.211636 -0.033467 22.553698 35.535374 19.892335 0.010113 0.088937 0.050410 25.187043 34.023976 18.795023 0.071703 0.114000 -0.018898 22.827974 34.845037 20.353294 0.122921 0.045205 -0.019046 19.184683 34.715686 30.174850 0.255332 -0.015649 -0.022946 15.066540 36.504899 21.055875 0.265709 0.012698 -0.007375 26.563342 32.225867 19.772581 0.086691 -0.010636 -0.015594 23.715253 39.184478 22.026207 -0.082954 0.112472 -0.023707 18.265302 34.295217 29.844956 -0.113228 0.046853 -0.008472 19.707483 36.389288 26.873028 -0.260128 -0.014369 -0.031269 17.534786 33.932479 29.486538 -0.269108 0.006794 -0.006027 31.132774 36.809853 14.185114 -0.088754 -0.008652 -0.010107 28.878402 34.812159 19.798780 
0.000000 0.000000 0.000000 -0.000000 0.000000 -0.000000 -0.002174 0.972724 0.028584 -0.000000 0.000000 -0.000000 0.058581 -0.082280 -0.017664 16.957085 36.708869 25.105880 0.043451 -0.386469 0.008037 18.795123 29.950615 27.232640 -0.014790 -0.426874 -0.037428 24.375895 29.389413 23.751705 0.041054 -0.060286 0.122042 23.696822 36.862258 28.785446 -0.060310 -0.090513 -0.013543 25.565572 31.082227 25.660611 -0.043257 -0.383688 -0.004843 20.424808 36.574471 20.812893 0.019055 -0.420046 -0.034562 20.282361 37.643136 21.931201 -0.034840 -0.062106 0.130323 29.187099 39.506774 17.851249 0.004439 0.124404 -0.038385 19.122667 38.483161 21.787742 0.004488 0.137956 0.026820 19.078269 33.783055 30.331398 -0.002265 0.056032 0.002855 21.785740 33.974399 26.340257 -0.013390 0.211636 -0.033468 30.538957 30.480279 15.897914 0.010113 0.088937 0.050410 32.451322 32.535835 22.843668 0.071702 0.114000 -0.018898 17.719331 28.033070 21.390593 0.122921 0.045205 -0.019046 20.112564 34.879030 20.330241 0.255332 -0.015649 -0.022947 20.193465 33.987564 24.152661 0.265709 0.012698 -0.007375 27.059280 37.206994 26.564694 0.086691 -0.010636 -0.015594 16.273940 33.671139 23.873724 -0.082954 0.112472 -0.023707 19.580122 32.621281 23.346271 -0.113228 0.046853 -0.008472 24.561736 37.180722 23.270571 -0.260128 -0.014369 -0.031269 20.120742 38.698793 20.629244 -0.269108 0.006794 -0.006027 29.921478 29.758974 17.521358 -0.088754 -0.008652 -0.010107 30.749208 40.549136 25.916494 
0.000000 0.000000 0.000000 -0.000000 0.000000 -0.000000 -0.002174 0.972724 0.028584 -0.000000 0.000000 -0.000000 0.058581 -0.082280 -0.017664 20.610634 35.712450 24.288139 0.043451 -0.386470 0.008037 21.320077 36.995767 32.619894 -0.014790 -0.426874 -0.037428 29.605161 35.206661 17.172895 0.041054 -0.060286 0.122042 26.441447 37.798328 15.818619 -0.060310 -0.090513 -0.013543 22.296968 31.671007 16.915513 -0.043257 -0.383688 -0.004843 23.577840 31.696941 21.903814 0.019056 -0.420046 -0.034562 19.967880 37.933351 25.016929 -0.034840 -0.062106 0.130323 24.569748 33.520157 24.163560 0.004439 0.124403 -0.038385 31.002526 41.299234 17.104452 0.004488 0.137956 0.026820 19.605563 34.847489 19.013553 -0.002265 0.056033 0.002855 21.036486 35.095622 27.004997 -0.013390 0.211636 -0.033468 20.012237 29.316999 19.576820 0.010113 0.088937 0.050410 26.290387 37.972713 16.721970 0.071702 0.114000 -0.018898 28.013094 31.280624 15.808963 0.122921 0.045205 -0.019046 25.808992 37.502393 22.776879 0.255332 -0.015649 -0.022946 24.752920 32.448811 21.627739 0.265709 0.012698 -0.007375 16.005012 34.547261 29.489441 0.086690 -0.010636 -0.015594 16.253603 27.727855 31.845207 -0.082954 0.112472 -0.023707 20.933290 34.082422 20.855964 -0.113228 0.046853 -0.008472 27.991362 36.935734 19.423485 -0.260128 -0.014369 -0.031269 21.255335 27.113875 30.470703 -0.269108 0.006794 -0.006027 24.427251 33.474689 23.519637 -0.088754 -0.008652 -0.010107 23.617539 37.696982 21.215421 
0.000000 0.000000 0.000000 -0.000000 0.000000 -0.000000 -0.002174 0.972724 0.028584 -0.000000 0.000000 -0.000000 0.058581 -0.082280 -0.017664 25.922197 39.614329 28.440886 0.043451 -0.386469 0.008037 32.289805 37.831079 17.849069 -0.014790 -0.426874 -0.037428 20.697162 29.175686 19.829386 0.041054 -0.060286 0.122042 22.474973 37.690565 24.506434 -0.060310 -0.090513 -0.013543 22.024292 35.450792 18.021983 -0.043257 -0.383688 -0.004843 18.853257 34.416312 28.968092 0.019056 -0.420046 -0.034562 19.274003 31.840474 27.896776 -0.034840 -0.062106 0.130323 23.906664 35.973613 25.402245 0.004439 0.124404 -0.038385 23.352591 31.802160 21.395347 0.004488 0.137956 0.026820 19.222454 31.422097 16.137177 -0.002265 0.056032 0.002855 18.459945 37.543798 23.939239 -0.013390 0.211635 -0.033468 23.186284 29.797482 29.794357 0.010113 0.088938 0.050410 25.079567 34.607032 19.432363 0.071702 0.114000 -0.018898 26.905153 30.154643 22.825792 0.122921 0.045205 -0.019046 26.343532 38.558337 20.987199 0.255332 -0.015649 -0.022946 22.158069 34.609842 23.201458 0.265709 0.012698 -0.007375 26.804529 38.437856 19.315633 0.086691 -0.010636 -0.015594 28.438442 32.761361 23.673989 -0.082954 0.112472 -0.023707 26.640968 34.767705 28.491805 -0.113228 0.046853 -0.008472 16.518705 36.129075 29.311217 -0.260128 -0.014369 -0.031269 22.118068 31.604057 17.879646 -0.269108 0.006794 -0.006027 26.853300 34.412948 19.161478 -0.088754 -0.008651 -0.010107 24.076992 31.328415 23.892464 
0.000000 0.000000 0.000000 -0.000000 0.000000 -0.000000 -0.002174 0.972724 0.028584 -0.000000 0.000000 -0.000000 0.058581 -0.082280 -0.017664 19.584150 35.533352 21.934423 0.043451 -0.386469 0.008037 31.834777 32.271479 9.576492 -0.014790 -0.426874 -0.037428 24.917329 35.970556 16.357909 0.041054 -0.060286 0.122042 21.787081 27.749846 18.886269 -0.060310 -0.090513 -0.013542 29.383074 35.232568 18.206708 -0.043257 -0.383688 -0.004843 22.962169 34.857874 24.124886 0.019056 -0.420046 -0.034562 16.222251 32.977540 19.644801 -0.034840 -0.062105 0.130323 29.717549 34.631702 15.222175 0.004439 0.124404 -0.038385 23.493841 33.343266 18.544309 0.004488 0.137956 0.026820 19.118792 34.951164 26.862623 -0.002265 0.056032 0.002855 23.559061 42.835378 22.139264 -0.013390 0.211636 -0.033468 23.330215 27.956700 21.511268 0.010113 0.088938 0.050410 16.334034 40.701459 23.496168 0.071702 0.114000 -0.018898 23.465007 40.588426 17.413460 0.122921 0.045205 -0.019046 25.803683 31.969506 16.885862 0.255332 -0.015649 -0.022946 27.512250 31.451136 20.553120 0.265709 0.012698 -0.007375 24.239836 35.648564 24.626266 0.086691 -0.010636 -0.015594 30.202106 37.728722 21.859645 -0.082954 0.112472 -0.023707 17.207528 36.153035 17.313992 -0.113228 0.046853 -0.008472 20.235520 34.247152 30.511944 -0.260128 -0.014369 -0.031269 28.143202 27.620383 20.552990 -0.269108 0.006794 -0.006027 14.696492 33.184296 33.186465 -0.088754 -0.008652 -0.010107 21.651467 31.669726 24.026070 
0.000000 0.000000 0.000000 -0.000000 0.000000 -0.000000 -0.002174 0.972724 0.028584 -0.000000 0.000000 -0.000000 0.058581 -0.082280 -0.017664 22.013152 33.090303 21.698259 0.043451 -0.386469 0.008037 25.313216 34.227973 21.588754 -0.014790 -0.426874 -0.037428 31.139024 36.064652 19.195810 0.041054 -0.060286 0.122042 17.213786 36.386190 20.086878 -0.060310 -0.090513 -0.013543 21.826486 34.023696 19.107304 -0.043257 -0.383688 -0.004843 22.349795 30.344434 24.603485 0.019056 -0.420046 -0.034562 17.003819 33.483199 32.309428 -0.034840 -0.062106 0.130323 17.432591 34.615750 23.015425 0.004439 0.124404 -0.038385 26.269994 36.883961 23.529848 0.004488 0.137957 0.026820 24.667821 36.360058 18.230345 -0.002265 0.056032 0.002855 24.521725 32.831975 25.107058 -0.013390 0.211636 -0.033468 24.964828 35.663228 16.427962 0.010113 0.088938 0.050410 10.491868 31.849374 34.350527 0.071703 0.114000 -0.018898 24.130742 30.682159 26.595165 0.122921 0.045205 -0.019046 29.751122 26.080517 22.748394 0.255332 -0.015649 -0.022946 22.187294 40.015305 26.311111 0.265709 0.012698 -0.007375 33.117593 28.939764 15.963079 0.086691 -0.010636 -0.015594 24.658880 33.326043 17.556311 -0.082954 0.112472 -0.023707 23.483230 34.917703 25.681448 -0.113228 0.046853 -0.008472 27.721291 32.034612 22.339910 -0.260127 -0.014369 -0.031269 24.637338 30.957221 27.985571 -0.269108 0.006794 -0.006027 33.086311 34.313463 16.623010 -0.088754 -0.008652 -0.010107 16.231487 34.612974 28.616824 
0.000000 0.000000 0.000000 -0.000000 0.000000 -0.000000 -0.002174 0.972724 0.028584 -0.000000 0.000000 -0.000000 0.058581 -0.082280 -0.017664 15.087661 35.632971 28.091578 0.043451 -0.386469 0.008037 22.836956 28.171759 19.586641 -0.014790 -0.426874 -0.037428 27.109774 45.066152 24.440403 0.041054 -0.060286 0.122042 17.177591 35.749763 31.382984 -0.060310 -0.090513 -0.013543 26.824298 29.639794 17.846989 -0.043257 -0.383688 -0.004843 20.655392 37.408717 18.407112 0.019056 -0.420046 -0.034562 18.343982 35.364039 31.275067 -0.034840 -0.062106 0.130323 23.935382 31.083272 21.456416 0.004439 0.124404 -0.038385 27.567538 34.926234 24.516959 0.004488 0.137956 0.026820 17.905117 31.704895 15.795233 -0.002264 0.056032 0.002855 23.824373 36.902457 26.601719 -0.013390 0.211636 -0.033468 17.856696 33.889725 23.918370 0.010113 0.088937 0.050410 19.811812 30.417807 27.650974 0.071703 0.114000 -0.018898 17.846972 33.089531 28.251708 0.122921 0.045205 -0.019046 21.717442 34.851177 17.678001 0.255332 -0.015649 -0.022947 34.509510 31.029642 16.758050 0.265709 0.012698 -0.007375 25.525969 30.630721 25.927118 0.086691 -0.010636 -0.015594 22.016268 33.018145 27.319461 -0.082954 0.112472 -0.023707 12.463741 31.115787 25.045187 -0.113228 0.046853 -0.008472 21.937169 37.711985 23.173601 -0.260127 -0.014369 -0.031269 16.542313 37.321134 27.072705 -0.269108 0.006794 -0.006027 25.040095 28.031855 20.759043 -0.088754 -0.008652 -0.010107 25.225702 36.138104 22.690969 
0.000000 0.000000 0.000000 -0.000000 0.000000 -0.000000 -0.002174 0.972724 0.028584 -0.000000 0.000000 -0.000000 0.058581 -0.082280 -0.017664 29.010327 35.276240 25.039868 0.043451 -0.386469 0.008037 20.960350 40.800750 24.900223 -0.014790 -0.426874 -0.037428 20.398008 40.461105 22.730260 0.041054 -0.060286 0.122042 20.398925 35.339901 23.127763 -0.060310 -0.090513 -0.013542 18.213524 33.083514 14.507242 -0.043257 -0.383688 -0.004843 19.430737 34.852034 24.514097 0.019055 -0.420046 -0.034562 22.015144 34.893326 30.086478 -0.034840 -0.062106 0.130323 21.481073 34.437810 24.282105 0.004439 0.124404 -0.038385 19.139476 31.301736 26.560365 0.004488 0.137956 0.026820 23.400889 34.731526 19.446011 -0.002265 0.056032 0.002855 24.810034 33.165240 26.397686 -0.013390 0.211635 -0.033468 26.957898 34.037824 23.990713 0.010113 0.088937 0.050410 20.236411 32.848917 25.174291 0.071703 0.114000 -0.018898 27.463929 36.038988 17.323451 0.122921 0.045205 -0.019046 25.053368 26.306226 25.877244 0.255332 -0.015649 -0.022947 19.975530 23.876072 18.934369 0.265709 0.012698 -0.007375 22.965970 34.937879 26.957435 0.086690 -0.010636 -0.015594 20.589826 35.720831 28.173432 -0.082954 0.112472 -0.023707 32.050687 34.611174 14.051783 -0.113228 0.046853 -0.008472 22.570345 32.952555 22.746400 -0.260128 -0.014369 -0.031269 22.457201 36.567368 22.521683 -0.269108 0.006794 -0.006027 27.805466 25.969397 23.463312 -0.088754 -0.008651 -0.010107 25.013312 32.385195 16.277000 
